<svg xmlns="http://www.w3.org/2000/svg" width="59.745" height="63.557" viewBox="0 0 59.745 63.557"><defs><style>.a,.b{fill:#0fb1ca;}.a{fill-rule:evenodd;}</style></defs><g transform="translate(-0.154 -0.319)"><g transform="matrix(1, -0.017, 0.017, 1, 0, 1.037)"><g transform="translate(0 0)"><path class="a" d="M4.516,20.8H0L5.094,6.512C6.375,2.915,10.331,0,13.927,0h4.516L13.352,14.292C12.068,17.889,8.115,20.8,4.516,20.8Z" transform="translate(0 8.803)"/><path class="a" d="M13.927,20.8h4.516L13.349,6.512C12.068,2.915,8.112,0,4.516,0H0L5.091,14.292C6.375,17.889,10.331,20.8,13.927,20.8Z" transform="translate(40.948 8.803)"/><path class="b" d="M4.151,2.075A2.075,2.075,0,1,1,2.075,0,2.074,2.074,0,0,1,4.151,2.075Z" transform="translate(20.865 18.762)"/><ellipse class="b" cx="2.075" cy="2.075" rx="2.075" ry="2.075" transform="translate(35.568 18.762)"/><path class="b" d="M0,7.519A11.515,11.515,0,0,1,10.385,0a7.414,7.414,0,0,0-1.96,2.434A14.656,14.656,0,0,1,16.934.59a8.419,8.419,0,0,0-2.24,1.926,14.77,14.77,0,0,1,5.8-.015s-3.149.913-4.278,3.277A16.3,16.3,0,0,0,0,7.519Z" transform="translate(20.622 0)"/><path class="b" d="M17.659,10.595a.774.774,0,0,0-1.065.246,3.524,3.524,0,0,1-2.845,1.893c-1.737,0-3.256-1.838-3.773-4.3a2.217,2.217,0,0,0,.907-.715L13.9,3.62C14.936,2.214,13.831.6,12.03.307a15.005,15.005,0,0,0-6.037,0C4.194.6,3.087,2.217,4.121,3.62l3.019,4.1a2.217,2.217,0,0,0,.907.715c-.517,2.462-2.036,4.3-3.773,4.3a3.524,3.524,0,0,1-2.845-1.893.773.773,0,0,0-1.311.819,5.019,5.019,0,0,0,4.157,2.62,3.953,3.953,0,0,0,.87-.1c1,2.124,2.367,3.289,3.868,3.289s2.863-1.165,3.864-3.292a3.96,3.96,0,0,0,.873.1,5.019,5.019,0,0,0,4.157-2.62A.771.771,0,0,0,17.659,10.595ZM9.011,15.926c-.846,0-1.725-.852-2.443-2.349a6.732,6.732,0,0,0,2.443-3.067,6.729,6.729,0,0,0,2.443,3.067C10.737,15.074,9.857,15.926,9.011,15.926Z" transform="translate(21.272 26.647)"/><path class="a" d="M9.264,8.964a5.97,5.97,0,0,1,1.76-4.145C6.017,4.081,1.973,2.3,0,0V6.149C1.943,9.326,5.9,11.8,10.8,12.865A5.89,5.89,0,0,1,9.264,8.964Zm6.922-3.773c-.776,0-1.539-.026-2.288-.072a4.525,4.525,0,0,0-2.672,3.845c0,2.052,1.775,3.8,4.25,4.464.235.005.473.01.709.01,7.309,0,13.569-3.01,16.186-7.284V.005C29.758,3.046,23.5,5.191,16.186,5.191Z" transform="translate(13.696 48.846)"/></g></g><rect class="b" width="16.536" height="11.812" rx="5.906" transform="translate(23.035 52.064)"/></g></svg>