<svg xmlns="http://www.w3.org/2000/svg" width="184.999" height="63" viewBox="0 0 184.999 63"><defs><style>.a{fill:#298694;font-size:23px;}.a,.b{font-family:Poppins-Bold, Poppins;font-weight:700;}.b{fill:#415037;font-size:13px;}.c{fill:#005a8e;}.d{fill:#2892bb;}.e,.f{fill:#fff;}.f{stroke:#63bdcb;stroke-width:2px;}.g,.h{fill:#0fb1ca;}.g{fill-rule:evenodd;}.i{stroke:none;}.j{fill:none;}</style></defs><g transform="translate(-19 -19)"><g transform="translate(63.32 29.617)"><text class="a" transform="translate(10.679 24.383)"><tspan x="0" y="0">Wearables</tspan></text><text class="b" transform="translate(10.679 41.383)"><tspan x="0" y="0">Analytical Platform</tspan></text></g><g transform="translate(-1255.331 -326.729)"><g transform="translate(1275.575 346)"><rect class="c" width="10" height="27" transform="translate(-0.244 15.729)"/><rect class="d" width="10" height="39" transform="translate(10.756 -0.271)"/><rect class="c" width="10" height="25" transform="translate(21.756 11.729)"/><rect class="d" width="10" height="31" transform="translate(32.756 5.729)"/></g><ellipse class="e" cx="22.5" cy="23" rx="22.5" ry="23" transform="translate(1274.331 362.729)"/><g class="f" transform="translate(1275.331 364.729)"><circle class="i" cx="21.5" cy="21.5" r="21.5"/><circle class="j" cx="21.5" cy="21.5" r="20.5"/></g><g transform="translate(1281.101 369.015)"><g transform="translate(0 0.747)"><g transform="translate(0 0)"><g transform="translate(0 0)"><g transform="matrix(1, -0.017, 0.017, 1, 0, 0.544)"><g transform="translate(0 0)"><path class="g" d="M2.37,10.919H0l2.674-7.5A5.354,5.354,0,0,1,7.31,0H9.68L7.008,7.5A5.356,5.356,0,0,1,2.37,10.919Z" transform="translate(0 4.62)"/><path class="g" d="M7.31,10.919H9.68l-2.674-7.5A5.354,5.354,0,0,0,2.37,0H0L2.672,7.5A5.358,5.358,0,0,0,7.31,10.919Z" transform="translate(21.492 4.62)"/><path class="h" d="M2.178,1.089A1.089,1.089,0,1,1,1.089,0,1.089,1.089,0,0,1,2.178,1.089Z" transform="translate(10.951 9.848)"/><ellipse class="h" cx="1.089" cy="1.089" rx="1.089" ry="1.089" transform="translate(18.668 9.848)"/><path class="h" d="M0,3.946A6.044,6.044,0,0,1,5.451,0,3.891,3.891,0,0,0,4.422,1.278,7.692,7.692,0,0,1,8.888.31,4.419,4.419,0,0,0,7.712,1.321a7.752,7.752,0,0,1,3.044-.008,3.962,3.962,0,0,0-2.245,1.72A8.554,8.554,0,0,0,0,3.946Z" transform="translate(10.823 0)"/><path class="h" d="M9.269,5.561a.406.406,0,0,0-.559.129,1.85,1.85,0,0,1-1.493.993c-.912,0-1.709-.965-1.98-2.255a1.163,1.163,0,0,0,.476-.375L7.3,1.9C7.839,1.162,7.259.317,6.314.161a7.876,7.876,0,0,0-3.169,0C2.2.316,1.62,1.164,2.163,1.9L3.747,4.053a1.163,1.163,0,0,0,.476.375C3.952,5.72,3.155,6.683,2.243,6.683A1.85,1.85,0,0,1,.75,5.69a.406.406,0,0,0-.688.43A2.634,2.634,0,0,0,2.243,7.495,2.075,2.075,0,0,0,2.7,7.444C3.227,8.558,3.942,9.17,4.73,9.17s1.5-.612,2.028-1.728a2.078,2.078,0,0,0,.458.051A2.634,2.634,0,0,0,9.4,6.118.4.4,0,0,0,9.269,5.561ZM4.73,8.359c-.444,0-.906-.447-1.282-1.233A3.533,3.533,0,0,0,4.73,5.516a3.532,3.532,0,0,0,1.282,1.61C5.635,7.912,5.174,8.359,4.73,8.359Z" transform="translate(11.165 13.986)"/><path class="g" d="M4.862,4.7a3.133,3.133,0,0,1,.924-2.176C3.158,2.142,1.035,1.205,0,0V3.227A8.709,8.709,0,0,0,5.67,6.752,3.091,3.091,0,0,1,4.862,4.7ZM8.5,2.724c-.407,0-.808-.013-1.2-.038A2.375,2.375,0,0,0,5.893,4.7,2.673,2.673,0,0,0,8.123,7.048c.124,0,.248.005.372.005,3.836,0,7.122-1.58,8.5-3.823V0C15.619,1.6,12.333,2.724,8.5,2.724Z" transform="translate(7.188 25.637)"/></g></g><rect class="h" width="8.679" height="6.199" rx="3.1" transform="translate(12.09 27.326)"/></g></g></g><path class="c" d="M1165.092,946.259c0-.127-.011-.255-.021-.383C1165.073,945.9,1165.081,946.05,1165.092,946.259Z" transform="translate(-1152.847 -945.876)"/></g></g></g></svg>